<svg width="200" height="200" viewBox="0 0 200 200" xmlns="http://www.w3.org/2000/svg">
  <defs>
    <radialGradient id="outerGradient" cx="50%" cy="50%" r="50%">
      <stop offset="0%" style="stop-color:#4a4a4a;stop-opacity:1" />
      <stop offset="100%" style="stop-color:#1a1a1a;stop-opacity:1" />
    </radialGradient>
    <radialGradient id="innerGradient" cx="50%" cy="50%" r="45%">
      <stop offset="0%" style="stop-color:#ffd700;stop-opacity:1" />
      <stop offset="100%" style="stop-color:#ffb000;stop-opacity:1" />
    </radialGradient>
  </defs>
  
  <!-- Outer circle -->
  <circle cx="100" cy="100" r="95" fill="url(#outerGradient)" stroke="#000" stroke-width="3"/>
  
  <!-- Inner yellow circle -->
  <circle cx="100" cy="100" r="85" fill="url(#innerGradient)"/>
  
  <!-- Batman symbol -->
  <g transform="translate(100,100)">
    <!-- Main bat body -->
    <path d="M 0,-45 
             C -15,-45 -25,-35 -35,-25
             C -45,-15 -50,-5 -55,5
             C -60,15 -65,25 -70,30
             C -65,35 -55,40 -45,35
             C -35,30 -25,25 -15,20
             C -10,15 -5,10 0,5
             C 5,10 10,15 15,20
             C 25,25 35,30 45,35
             C 55,40 65,35 70,30
             C 65,25 60,15 55,5
             C 50,-5 45,-15 35,-25
             C 25,-35 15,-45 0,-45 Z" 
          fill="#1a1a1a"/>
    
    <!-- Bat ears -->
    <path d="M -20,-45 L -15,-65 L -5,-55 L -10,-45 Z" fill="#1a1a1a"/>
    <path d="M 20,-45 L 15,-65 L 5,-55 L 10,-45 Z" fill="#1a1a1a"/>
    
    <!-- Wing details -->
    <path d="M -35,-20 C -40,-10 -45,0 -50,10 C -45,15 -35,20 -25,15 C -20,10 -15,5 -10,0 L -35,-20 Z" fill="#2a2a2a"/>
    <path d="M 35,-20 C 40,-10 45,0 50,10 C 45,15 35,20 25,15 C 20,10 15,5 10,0 L 35,-20 Z" fill="#2a2a2a"/>
  </g>
  
  <!-- Copyright text -->
  <text x="100" y="185" text-anchor="middle" font-family="Arial, sans-serif" font-size="8" fill="#666">TM & © DC</text>
</svg>